<?xml version="1.0" standalone="no"?><svg xmlns="http://www.w3.org/2000/svg" viewBox="0 0 1440 320"><path fill="#1a1d30" fill-opacity="1" d="M0,288L26.7,282.7C53.3,277,107,267,160,272C213.3,277,267,299,320,293.3C373.3,288,427,256,480,250.7C533.3,245,587,267,640,261.3C693.3,256,747,224,800,202.7C853.3,181,907,171,960,186.7C1013.3,203,1067,245,1120,224C1173.3,203,1227,117,1280,106.7C1333.3,96,1387,160,1413,192L1440,224L1440,320L1413.3,320C1386.7,320,1333,320,1280,320C1226.7,320,1173,320,1120,320C1066.7,320,1013,320,960,320C906.7,320,853,320,800,320C746.7,320,693,320,640,320C586.7,320,533,320,480,320C426.7,320,373,320,320,320C266.7,320,213,320,160,320C106.7,320,53,320,27,320L0,320Z"></path></svg>